<?xml version="1.0" encoding="UTF-8" standalone="no"?>
<!-- Created with Inkscape (http://www.inkscape.org/) -->

<svg
   width="286mm"
   height="90mm"
   viewBox="0 0 286 90"
   version="1.1"
   id="svg5"
   inkscape:version="1.1 (1:1.1+202106031931+af4d65493e)"
   sodipodi:docname="logo_diskom_ls.svg"
   xmlns:inkscape="http://www.inkscape.org/namespaces/inkscape"
   xmlns:sodipodi="http://sodipodi.sourceforge.net/DTD/sodipodi-0.dtd"
   xmlns:xlink="http://www.w3.org/1999/xlink"
   xmlns="http://www.w3.org/2000/svg"
   xmlns:svg="http://www.w3.org/2000/svg">
  <sodipodi:namedview
     id="namedview7"
     pagecolor="#ffffff"
     bordercolor="#666666"
     borderopacity="1.0"
     inkscape:pageshadow="2"
     inkscape:pageopacity="0.0"
     inkscape:pagecheckerboard="0"
     inkscape:document-units="mm"
     showgrid="false"
     inkscape:zoom="0.60095148"
     inkscape:cx="406.0228"
     inkscape:cy="247.94015"
     inkscape:window-width="1366"
     inkscape:window-height="649"
     inkscape:window-x="0"
     inkscape:window-y="38"
     inkscape:window-maximized="1"
     inkscape:current-layer="layer1"
     height="209mm" />
  <defs
     id="defs2">
    <ellipse
       id="SVGID_1_"
       cx="240"
       cy="260"
       rx="173.8"
       ry="236.3" />
  </defs>
  <g
     inkscape:label="Layer 1"
     inkscape:groupmode="layer"
     id="layer1">
    <g
       id="g2411"
       transform="matrix(1.4056437,0,0,1.4056437,-0.05051965,-235.99878)"
       inkscape:export-filename="/home/beni/Desktop/website/g2411.png"
       inkscape:export-xdpi="96"
       inkscape:export-ydpi="96">
      <g
         id="g1529"
         transform="matrix(1.1169706,0,0,1.1169706,-2.7894238,43.185516)">
        <g
           id="g1494"
           transform="matrix(0.89456944,0,0,0.89456944,6.3418606,12.306617)">
          <path
             style="fill:#fcdc01;stroke-width:0.264583"
             d="m 78.487501,132.07223 c -0.922229,-0.64596 -1.256567,-2.04944 -0.745019,-3.12745 1.284499,-2.70688 5.333857,-1.3881 4.781322,1.55716 -0.315714,1.68291 -2.604336,2.57327 -4.036303,1.57029 z"
             id="path914" />
          <path
             style="fill:#fcdc01;stroke-width:0.264583"
             d="m 77.879216,141.06888 v -7.27604 h 2.116666 2.116667 v 7.27604 7.27604 h -2.116667 -2.116666 z"
             id="path912" />
          <path
             style="fill:#fcdc01;stroke-width:0.264583"
             d="m 87.378541,148.602 c -0.668968,-0.11089 -1.574028,-0.38661 -2.011247,-0.61271 -0.82206,-0.4251 -2.460995,-2.124 -2.460995,-2.55103 0,-0.13334 0.771811,-0.67405 1.715135,-1.20159 l 1.715135,-0.95916 0.600382,0.69799 c 0.779886,0.90667 2.540984,1.19958 3.207141,0.53342 0.655617,-0.65561 0.183563,-1.08407 -1.905185,-1.72922 -3.437321,-1.06169 -4.803441,-2.37096 -4.803441,-4.60358 0,-3.4365 3.67208,-5.49869 7.766764,-4.36172 0.930568,0.25839 3.345738,2.15343 3.345738,2.6252 0,0.10896 -0.83448,0.63661 -1.85439,1.17256 -1.493555,0.78484 -1.883378,0.8989 -2.003385,0.58617 -0.209273,-0.54536 -1.549877,-1.04873 -2.223564,-0.83491 -0.381273,0.12101 -0.537657,0.35751 -0.482526,0.72973 0.06438,0.4346 0.53031,0.69475 2.210141,1.23404 2.523694,0.81021 3.406374,1.34481 4.100784,2.48367 0.62136,1.01906 0.68562,3.06028 0.13015,4.13443 -1.0693,2.06779 -3.979799,3.1651 -7.046637,2.6567 z"
             id="path910" />
          <path
             id="path906"
             style="fill:#fcdc01;stroke-width:0.999999"
             d="m 271.3457,483.67383 v 13.65429 c 0,13.04795 -0.078,13.58402 -1.78515,12.03907 -3.10037,-2.80581 -8.95975,-4.69336 -14.56836,-4.69336 -7.0535,0 -14.89293,3.99067 -19.36914,9.85937 -12.76939,16.7418 -4.34947,43.31942 14.9082,47.06055 2.37367,0.46099 4.98945,0.7075 5.81445,0.54687 0.825,-0.16062 3.1744,-0.57485 5.22071,-0.91992 2.04631,-0.34492 5.08381,-1.77376 6.75,-3.17578 l 3.02929,-2.54883 v 2.58789 c 0,2.57001 0.0601,2.58985 8,2.58985 h 8 v -38.5 -38.5 h -8 z m -13.06054,36.47656 c 1.47244,-0.009 3.01,0.22903 4.57812,0.75391 4.92816,1.6495 7.65415,5.44814 8.21289,11.44531 0.36345,3.90108 -0.004,5.49223 -1.91992,8.31055 -1.30302,1.91697 -3.48135,4.04695 -4.83984,4.73437 -6.30299,3.18936 -14.91343,0.0511 -17.61719,-6.41992 -3.96468,-9.48883 2.58764,-18.77005 11.58594,-18.82422 z"
             transform="scale(0.26458333)" />
          <path
             style="fill:#fcdc01;stroke-width:0.264583"
             d="m 177.62713,148.56381 c -1.38506,-0.93675 -1.91169,-2.143 -1.75803,-4.02673 0.53306,-6.53479 10.00345,-13.82831 15.05442,-11.59403 1.47734,0.6535 2.04945,1.62801 2.04945,3.49099 0,1.2399 -0.64078,3.42081 -0.92235,3.13924 -0.0669,-0.0669 0.007,-0.58687 0.16381,-1.15547 0.157,-0.5686 0.22502,-1.57001 0.15115,-2.22535 -0.45719,-4.05618 -6.12334,-2.8271 -11.44888,2.48346 -3.07828,3.06961 -4.41395,6.05392 -3.70676,8.28208 0.40461,1.27481 2.72169,1.86178 5.17969,1.31215 l 0.92605,-0.20707 -0.77723,0.43996 c -0.42748,0.24197 -1.49904,0.49556 -2.38125,0.56351 -1.37189,0.10568 -1.73804,0.0329 -2.53007,-0.50274 z"
             id="path904" />
          <path
             style="fill:#1674ba;stroke-width:0.264583"
             d="m 160.28896,130.41941 c -0.81144,-5.9058 -4.62733,-10.01685 -10.1818,-10.96933 l -1.8732,-0.32122 0.0784,-1.20082 0.0784,-1.20082 1.19062,0.0815 c 6.87064,0.4703 13.20949,6.99351 13.22603,13.61069 l 0.003,1.25677 h -1.17442 -1.17441 z"
             id="path540" />
          <path
             style="fill:#1674ba;stroke-width:0.264583"
             d="m 154.09039,130.28712 c -0.53967,-2.52179 -2.418,-4.39541 -4.85301,-4.84086 l -1.00538,-0.18392 0.0793,-1.22485 c 0.0769,-1.18784 0.10332,-1.22241 0.87309,-1.14396 3.76561,0.38374 7.08568,3.65738 7.46821,7.36377 l 0.14644,1.41888 h -1.20571 -1.20572 z"
             id="path538" />
          <path
             style="fill:#1674ba;stroke-width:0.264583"
             d="m 147.62044,131.65588 c -0.95837,-1.13896 -0.92528,-2.42593 0.0884,-3.43964 0.57258,-0.57258 1.02441,-0.7734 1.74014,-0.7734 0.71573,0 1.16756,0.20082 1.74014,0.7734 1.01371,1.01371 1.04679,2.30068 0.0884,3.43964 -0.57033,0.6778 -0.87638,0.81405 -1.82856,0.81405 -0.95218,0 -1.25823,-0.13625 -1.82857,-0.81405 z"
             id="path536" />
          <path
             style="fill:#1674ba;stroke-width:0.264583"
             d="m 182.21946,134.39527 c 0.28033,-0.5421 0.67935,-0.84978 1.25008,-0.96393 1.40607,-0.28121 1.74619,-0.18942 0.91127,0.24594 -0.43282,0.22569 -1.18884,0.65872 -1.68003,0.9623 l -0.89309,0.55196 z"
             id="path534" />
          <path
             style="fill:#1674ba;stroke-width:0.264583"
             d="m 180.27297,134.71889 c 1.26411,-0.93263 1.60242,-0.88436 1.04902,0.14968 -0.18205,0.34018 -0.55415,0.51177 -1.10973,0.51177 h -0.83585 z"
             id="path532" />
          <path
             style="fill:#1674ba;stroke-width:0.264583"
             d="m 184.65477,136.90942 c -0.51822,-0.26586 -0.94222,-0.53505 -0.94222,-0.5982 0,-0.17015 2.10433,-1.37185 3.21286,-1.83475 0.93905,-0.39213 0.99192,-0.38221 2.05052,0.38463 1.12738,0.81667 1.38328,1.31299 0.67696,1.31299 -0.2253,0 -0.90991,0.24741 -1.52135,0.54979 -1.46653,0.72526 -2.33447,0.77158 -3.47677,0.18554 z"
             id="path530" />
          <path
             style="fill:#1674ba;stroke-width:0.264583"
             d="m 177.09797,140.25229 c 0,-0.71202 0.84903,-3.01878 1.34156,-3.64493 0.56523,-0.71858 1.4015,-0.9181 1.71591,-0.40938 0.0981,0.15865 -0.23599,0.7242 -0.74231,1.25677 -0.50633,0.53257 -1.23437,1.44243 -1.61788,2.02191 -0.3835,0.57948 -0.69728,0.92852 -0.69728,0.77563 z"
             id="path528" />
          <path
             style="fill:#1674ba;stroke-width:0.264583"
             d="m 189.58033,141.89284 c -0.17817,-0.49271 -0.7974,-1.43372 -1.37607,-2.09112 -0.57867,-0.65741 -1.05213,-1.37071 -1.05213,-1.58512 0,-0.41173 2.26308,-1.51334 3.1089,-1.51334 0.67588,0 1.41358,1.61245 1.58335,3.46082 0.12605,1.37246 0.0842,1.51688 -0.59421,2.05052 -0.99446,0.78225 -1.29131,0.72505 -1.66984,-0.32176 z"
             id="path526" />
          <path
             style="fill:#1674ba;stroke-width:0.264583"
             d="m 180.63827,142.66952 c -0.0889,-0.23169 -0.11128,-1.2122 -0.0497,-2.17891 0.1053,-1.65371 0.1723,-1.80986 1.13288,-2.64021 0.56153,-0.48541 1.20949,-0.88211 1.4399,-0.88157 0.5635,0.001 2.19945,1.01582 2.092,1.29729 -0.0471,0.12325 -1.06832,1.25922 -2.26948,2.52437 -1.65212,1.74014 -2.22328,2.1977 -2.34557,1.87903 z"
             id="path524" />
          <path
             style="fill:#1674ba;stroke-width:0.264583"
             d="m 178.67819,143.14099 c -0.3598,-0.24278 -0.69346,-0.47058 -0.74147,-0.5062 -0.11443,-0.0849 0.69842,-1.36873 1.46501,-2.31381 l 0.60665,-0.7479 v 2.00467 c 0,2.17541 -0.15428,2.35673 -1.33019,1.56324 z"
             id="path522" />
          <path
             style="fill:#1674ba;stroke-width:0.264583"
             d="m 190.33119,144.47472 c 0.005,-0.56175 0.1931,-0.86802 0.85236,-1.38482 0.42479,-0.333 0.43825,-0.29914 0.17791,0.44765 -0.36317,1.04181 -1.03614,1.65395 -1.03027,0.93717 z"
             id="path520" />
          <path
             style="fill:#1674ba;stroke-width:0.264583"
             d="m 183.05109,144.74633 c -0.29104,-0.0694 -0.79705,-0.18334 -1.12448,-0.2532 -1.01804,-0.21724 -0.67893,-0.99728 1.41199,-3.24795 2.37411,-2.55551 2.99241,-2.7321 4.31035,-1.23106 0.44891,0.51129 0.99388,1.27321 1.21104,1.69315 0.56766,1.09774 -0.0172,2.21056 -1.37535,2.61684 -1.19814,0.35842 -3.70136,0.59681 -4.43355,0.42222 z"
             id="path518" />
          <path
             style="fill:#1674ba;stroke-width:0.264583"
             d="m 178.64333,145.1321 c -0.22258,-0.343 -0.54652,-0.89162 -0.71986,-1.21916 l -0.31518,-0.59552 0.92383,0.44054 c 1.07933,0.5147 1.30222,0.92243 0.84562,1.54686 -0.30369,0.41532 -0.36166,0.40168 -0.73441,-0.17272 z"
             id="path516" />
          <path
             style="fill:#1674ba;stroke-width:0.264583"
             d="m 180.20682,146.73623 c -0.55722,-0.32454 -0.5971,-0.86107 -0.095,-1.27779 0.29605,-0.24569 0.42544,-0.1408 0.66146,0.53625 0.41173,1.18111 0.3429,1.27121 -0.56648,0.74154 z"
             id="path514" />
          <path
             style="fill:#1674ba;stroke-width:0.264583"
             d="m 182.65844,147.8446 c -0.47755,-0.13296 -0.78731,-0.53333 -1.13301,-1.4644 -0.26167,-0.70477 -0.43894,-1.31824 -0.39392,-1.36326 0.045,-0.045 0.6144,0.0414 1.2653,0.19216 1.41897,0.32854 3.93303,0.1398 5.48759,-0.41197 1.34411,-0.47707 1.91357,-0.32234 1.91357,0.51993 0,1.72912 -4.40555,3.28877 -7.13953,2.52754 z"
             id="path512" />
          <path
             style="fill:#1674ba;stroke-width:0.264583"
             d="m 169.68963,143.18555 v -5.15937 h -1.06946 -1.06946 l 0.0773,-2.05052 0.0773,-2.05052 0.99219,-0.0821 c 0.95118,-0.0787 0.99243,-0.12247 0.99799,-1.05834 0.0169,-2.84262 2.53543,-5.07725 5.72222,-5.07725 h 1.15114 v 2.11666 2.11667 h -0.88503 c -0.9428,0 -1.7608,0.65499 -1.7608,1.40989 0,0.35424 0.26313,0.44219 1.32291,0.44219 h 1.32292 v 2.11667 2.11666 h -1.32292 -1.32291 v 5.15938 5.15937 h -2.11667 -2.11667 z"
             id="path510" />
          <path
             style="fill:#1674ba;stroke-width:0.264583"
             d="m 153.28547,141.06889 v -7.27605 h 2.11666 c 2.11434,0 2.11667,7.7e-4 2.11667,0.70247 0,0.65774 0.0301,0.67523 0.47271,0.27467 2.06586,-1.86958 6.17296,-1.52808 7.78969,0.64771 1.12064,1.50814 1.2626,2.38597 1.2626,7.80734 v 5.1199 h -2.11667 -2.11666 v -4.65056 -4.65056 l -0.7734,-0.7734 c -0.82865,-0.82865 -1.87883,-1.00025 -2.99872,-0.48999 -1.22735,0.55922 -1.37047,1.14172 -1.47434,6.00045 l -0.0976,4.56406 h -2.09046 -2.09048 z"
             id="path508" />
          <path
             style="fill:#1674ba;stroke-width:0.264583"
             d="m 147.26194,141.13499 0.0704,-7.2099 h 2.11667 2.11667 l 0.0704,7.2099 0.0704,7.20989 h -2.25746 -2.25746 z"
             id="path506" />
          <path
             style="fill:#1674ba;stroke-width:0.264583"
             d="m 124.1813,141.06889 v -7.27605 h 2.11667 2.11666 v 0.70758 0.70758 l 0.59532,-0.55766 c 0.80933,-0.75815 1.86056,-1.12208 3.24114,-1.12208 1.43677,0 2.44207,0.36848 3.33885,1.22382 0.5916,0.56426 0.71685,0.59889 0.85587,0.23662 0.24936,-0.64984 2.27176,-1.44814 3.68514,-1.45463 2.28095,-0.0105 4.08175,1.08735 4.98153,3.0369 0.42323,0.91702 0.48923,1.77375 0.49426,6.41614 l 0.006,5.35782 h -2.11667 -2.11666 v -4.72682 c 0,-4.38137 -0.0401,-4.77777 -0.54837,-5.42396 -0.67058,-0.8525 -2.00339,-0.93984 -2.92805,-0.19188 -0.60994,0.49338 -0.62656,0.62087 -0.70713,5.42396 l -0.0825,4.9187 h -2.1003 -2.10031 v -4.32615 c 0,-4.48831 -0.22583,-5.81165 -1.06877,-6.26277 -0.87878,-0.47031 -1.98037,-0.29475 -2.65542,0.4232 -0.62178,0.66128 -0.64412,0.82752 -0.72901,5.42396 l -0.0876,4.74176 h -2.09524 -2.09524 z"
             id="path504" />
          <path
             style="fill:#1674ba;stroke-width:0.264583"
             d="m 95.669298,138.22462 0.0693,-10.12032 2.04562,-0.0772 2.04562,-0.0772 0.071,6.12541 0.071,6.1254 2.116662,-3.1378 2.11667,-3.1378 2.4474,-0.0761 c 1.34606,-0.0418 2.44739,-0.013 2.44739,0.0641 0,0.0771 -1.04774,1.59961 -2.32831,3.38337 -1.28057,1.78375 -2.41866,3.39197 -2.52909,3.57381 -0.12318,0.20284 0.24703,0.91867 0.95784,1.85209 0.63724,0.8368 1.83571,2.44419 2.66327,3.57198 l 1.50466,2.05052 -2.44929,-0.005 -2.44929,-0.005 -2.11666,-3.0274 c -1.16417,-1.66507 -2.20597,-3.03223 -2.31511,-3.03813 -0.109142,-0.006 -0.198442,1.35849 -0.198442,3.03198 v 3.04271 h -2.11981 -2.11981 z"
             id="path502" />
          <path
             id="path498"
             style="fill:#1674ba;stroke-width:0.999999"
             d="m 436.8457,504.52344 c -7.17478,0 -14.34873,2.8702 -20.08789,8.60937 -6.51416,6.51417 -8.86533,12.95453 -8.18554,22.42383 0.97508,13.58302 10.51504,24.05631 23.69531,26.01172 9.60533,1.42499 18.65858,-1.64908 25.21875,-8.56055 5.16317,-5.43968 7.09318,-9.84482 7.63672,-17.4414 0.6782,-9.47872 -1.67254,-15.91867 -8.1875,-22.4336 -5.73918,-5.73917 -12.91506,-8.60937 -20.08985,-8.60937 z m 0,16.15039 c 6.86336,0 12.5,5.6069 12.5,12.43359 0,3.90645 -2.51562,9.2101 -5.16601,10.89063 -8.32762,5.2803 -18.21416,0.71087 -19.51953,-9.02149 -1.05234,-7.84573 4.44843,-14.30273 12.18554,-14.30273 z"
             transform="scale(0.26458333)" />
          <path
             style="fill:#14af5b;stroke-width:0.264583"
             d="m 62.268799,154.43034 c -0.787839,-0.78784 -0.705559,-2.20409 0.167973,-2.89121 0.383427,-0.3016 0.90315,-0.54837 1.154944,-0.54837 0.251793,0 0.771517,0.24677 1.154943,0.54837 1.397947,1.09963 0.614307,3.42038 -1.154943,3.42038 -0.440973,0 -1.028936,-0.23518 -1.322917,-0.52917 z"
             id="path376" />
          <path
             style="fill:#14af5b;stroke-width:0.264583"
             d="m 106.98338,161.57409 v -5.55625 h 1.5875 1.5875 v 0.84326 0.84325 l 0.72761,-0.69413 c 0.67305,-0.64208 1.87869,-1.25696 2.46462,-1.25696 0.13604,0 0.24736,0.83344 0.24736,1.85208 0,1.62592 -0.0598,1.85209 -0.48969,1.85209 -0.26932,0 -0.87744,0.13517 -1.35138,0.30038 -1.23479,0.43046 -1.59852,1.50403 -1.59852,4.7182 v 2.65433 h -1.5875 -1.5875 z"
             id="path374" />
          <path
             id="path370"
             style="fill:#14af5b;stroke-width:0.999999"
             d="m 372.42578,588.72656 c -3.76257,0.008 -7.788,1.15095 -11.10742,3.34766 -12.7457,8.43469 -11.54857,31.09018 2.02734,38.35156 5.65229,3.02328 13.46977,2.75525 18.03125,-0.61719 2.92936,-2.16578 2.96875,-2.16691 2.96875,-0.16406 0,1.81448 0.63716,2.0293 6,2.0293 h 6 v -21 -21 h -6 c -4.66669,0 -6,0.33333 -6,1.5 0,1.93255 -0.19786,1.90457 -4.47851,-0.6211 -2.08982,-1.23301 -4.69575,-1.83187 -7.44141,-1.82617 z M 374.27344,600.5 c 7.81655,0.0628 14.2624,10.13799 7.15039,17.25 -3.83604,3.83603 -9.65403,4.05141 -13.77149,0.50977 -2.40173,-2.06593 -2.80664,-3.15766 -2.80664,-7.58594 0,-4.42825 0.40491,-5.52005 2.80664,-7.58594 2.13603,-1.83733 4.43246,-2.60548 6.6211,-2.58789 z"
             transform="scale(0.26458333)" />
          <path
             id="path366"
             style="fill:#14af5b;stroke-width:0.999999"
             d="m 304.3457,572.67383 v 29.5 29.5 h 6 c 5.47717,0 6,-0.18709 6,-2.1543 0,-1.99858 0.12945,-2.03877 1.77149,-0.55273 0.97381,0.88127 2.88631,2.07049 4.25,2.64453 1.36369,0.57422 4.85689,0.89828 7.76367,0.71875 6.7063,-0.41397 12.64015,-4.38738 15.91406,-10.65625 1.97564,-3.78342 2.30622,-5.72197 2.07227,-12.16992 -0.24121,-6.65277 -0.67635,-8.24319 -3.28711,-12 -5.59786,-8.05527 -16.98657,-11.25945 -24.25781,-6.82618 -1.80079,1.09792 -3.48831,1.9961 -3.75,1.9961 -0.26173,0 -0.47657,-4.5 -0.47657,-10 v -10 h -6 z m 22.09571,27.86914 c 5.10433,0.0111 9.90429,4.00943 9.90429,10.13086 0,3.25776 -0.62937,4.78366 -2.92187,7.07617 -2.29249,2.29251 -3.82037,2.92383 -7.07813,2.92383 -9.11099,0 -13.5177,-10.63465 -7.07617,-17.07617 2.11363,-2.11363 4.67906,-3.06009 7.17188,-3.05469 z"
             transform="scale(0.26458333)" />
          <path
             id="path362"
             style="fill:#14af5b;stroke-width:0.999999"
             d="m 271.50391,588.77344 c -6.76742,0.0962 -13.48182,3.81703 -16.72461,10.04883 -6.05681,11.63958 -1.76164,27.07537 8.8789,31.90625 5.43109,2.46549 11.28273,2.44592 16.1875,-0.0547 4.69227,-2.39225 4.5,-2.37091 4.5,-0.5 0,1.16666 1.33333,1.5 6,1.5 h 6 v -21 -21 h -6 c -4.66667,0 -6,0.33333 -6,1.5 0,1.8709 0.19228,1.89225 -4.5,-0.5 -2.61859,-1.33505 -5.48444,-1.94099 -8.34179,-1.90039 z m 2.47656,11.90039 c 9.54156,0 13.7322,10.72481 6.87109,17.58594 -1.7711,1.77108 -3.51246,2.41406 -6.53711,2.41406 -8.85255,0 -13.20972,-9.99429 -7.3789,-16.92383 2.17775,-2.58811 3.29612,-3.07617 7.04492,-3.07617 z"
             transform="scale(0.26458333)" />
          <path
             style="fill:#14af5b;stroke-width:0.264583"
             d="m 60.152132,170.33901 c 0,-1.42901 0.06094,-1.62117 0.514165,-1.62117 1.185749,0 1.337919,-0.78911 1.337919,-6.93803 v -5.76197 h 1.5875 1.5875 l -5.29e-4,6.41615 c -2.65e-4,5.5856 -0.0603,6.53358 -0.463021,7.32338 -0.649478,1.2737 -1.659065,1.9237 -3.221027,2.07379 l -1.342626,0.12901 v -1.62116 z"
             id="path169" />
        </g>
      </g>
      <g
         id="g1317"
         transform="matrix(0.10211021,0,0,0.10211021,7.9134401,170.63834)">
        <g
           id="g1178">
          <path
             style="stroke:#000000;stroke-width:11;stroke-miterlimit:10"
             d="m 468.9,332.3 c -2.4,-11.3 -12.7,-16.4 -14,-17 0.1,5 -0.9,11.1 -5.3,15.1 -1.5,1.4 -3.8,3 -15,6 -6.2,1.7 -11.5,2.8 -15.6,3.5 -25.1,99.6 -95.7,171.4 -179,171.4 -83.3,0 -153.9,-71.8 -179,-171.4 -4.1,-0.8 -9.5,-1.9 -15.6,-3.5 -11.2,-3 -13.5,-4.6 -15,-6 -4.3,-4 -5.3,-10.1 -5.3,-15.1 -1.4,0.7 -11.6,5.7 -14,17 -1.5,7.2 -2.3,14.3 4.9,21 5.5,5.1 28.8,-0.3 26,0.8 -22.4,9.1 -17.4,22.7 6,12.9 1,-0.4 -6.2,3.2 -11.6,6.2 -3.5,1.9 -5.1,6.2 -3.7,9.9 36.4,99.3 115.5,168.2 207.3,168.2 91.8,0 170.9,-68.8 207.4,-168.1 1.4,-3.8 -0.2,-8 -3.7,-9.9 -5.5,-3 -12.7,-6.7 -11.6,-6.2 23.4,9.9 28.4,-3.8 6,-12.9 -2.8,-1.1 20.5,4.4 26,-0.8 7.1,-6.9 6.4,-13.9 4.8,-21.1 z"
             id="path952" />
          <path
             style="fill:#fbe600"
             d="m 468.9,332.3 c -2.4,-11.3 -12.7,-16.4 -14,-17 0.1,5 -0.9,11.1 -5.3,15.1 -1.5,1.4 -3.8,3 -15,6 -6.2,1.7 -11.5,2.8 -15.6,3.5 -25.1,99.6 -95.7,171.4 -179,171.4 -83.3,0 -153.9,-71.8 -179,-171.4 -4.1,-0.8 -9.5,-1.9 -15.6,-3.5 -11.2,-3 -13.5,-4.6 -15,-6 -4.3,-4 -5.3,-10.1 -5.3,-15.1 -1.4,0.7 -11.6,5.7 -14,17 -0.5,2.3 -3.9,14.5 4.9,21 6.1,4.4 20.5,2.6 26,0.8 -23.1,11 -16.1,21.3 6,12.9 0,0 -15,7.1 -15.7,12 -0.9,6.5 5.6,17.6 7,20.9 3.2,7.5 6.7,14.8 10.4,21.9 41,78.1 110.9,129.5 190.3,129.5 79.4,0 149.2,-51.4 190.3,-129.5 3.7,-7.1 7.2,-14.4 10.4,-21.9 1.4,-3.3 7.8,-14.4 7,-20.9 -0.7,-4.9 -15.7,-12 -15.7,-12 22.1,8.4 29.1,-1.9 6,-12.9 5.5,1.8 19.9,3.7 26,-0.8 8.8,-6.5 5.4,-18.7 4.9,-21 z"
             id="path954" />
          <g
             id="g998">
            <ellipse
               style="fill:none"
               cx="240"
               cy="260"
               rx="228.8"
               ry="291.29999"
               id="ellipse956" />
            <path
               d="m 54.8,396.1 3.6,-1.6 4.1,9.4 -8.6,3.8 c -1.3,-0.5 -2.6,-1.5 -4.1,-3 -1.4,-1.4 -2.5,-3 -3.3,-4.8 -1,-2.3 -1.4,-4.4 -1.2,-6.5 0.2,-2.1 1,-4 2.4,-5.6 1.4,-1.6 3.1,-2.9 5.2,-3.8 2.3,-1 4.5,-1.4 6.6,-1.2 2.2,0.2 4.1,1 5.8,2.4 1.3,1.1 2.4,2.6 3.4,4.7 1.2,2.7 1.5,5 1.1,7 -0.5,2 -1.6,3.7 -3.4,5 l -2.7,-4 c 0.9,-0.8 1.5,-1.7 1.8,-2.8 0.2,-1.1 0.1,-2.3 -0.5,-3.6 -0.8,-1.9 -2.1,-3.2 -3.8,-3.8 -1.7,-0.6 -3.7,-0.4 -6.1,0.7 -2.6,1.1 -4.2,2.5 -5,4.2 -0.8,1.7 -0.8,3.5 0,5.3 0.4,0.9 1,1.8 1.7,2.5 0.8,0.8 1.5,1.4 2.3,1.8 l 2.7,-1.2 z"
               id="path958" />
            <path
               d="m 54.4,415.7 20.7,-11.4 8.4,15.4 -3.5,1.9 -6.1,-11.2 -4.6,2.5 5.7,10.4 -3.5,1.9 -5.7,-10.4 -5.6,3.1 6.3,11.6 -3.5,1.9 z"
               id="path960" />
            <path
               d="m 66.7,437.6 19.5,-13.3 4,5.9 -10.9,12.6 15.7,-5.6 4,5.9 -19.5,13.3 -2.5,-3.7 15.4,-10.5 -18,6.6 -2.6,-3.8 12.7,-14.3 -15.4,10.5 z"
               id="path962" />
            <path
               d="m 98.3,479 -3.4,-3.9 2.7,-5.1 -6.1,-7.2 -5.3,2 -3.3,-3.8 23.9,-8.4 3.3,3.8 z m 1.4,-12.8 4.5,-8.2 -8.7,3.3 z"
               id="path964" />
            <path
               d="m 102.4,483.1 16.2,-17.2 3.5,3.3 -6.4,6.8 6.8,6.4 6.4,-6.8 3.5,3.3 -16.2,17.1 -3.5,-3.3 7.1,-7.5 -6.8,-6.4 -7.1,7.5 z"
               id="path966" />
            <path
               d="m 132.2,508.6 12.9,-19.8 8.4,5.5 c 2.1,1.4 3.5,2.5 4.3,3.5 0.8,1 1.1,2.1 1.1,3.4 0,1.3 -0.4,2.5 -1.2,3.7 -1,1.5 -2.2,2.4 -3.7,2.8 -1.5,0.4 -3.2,0.2 -5.1,-0.7 0.5,1.1 0.9,2.1 1.1,3.1 0.2,1 0.2,2.5 0.2,4.7 l -0.1,5.4 -4.8,-3.1 -0.1,-6.2 c 0,-2.2 -0.1,-3.6 -0.2,-4.3 -0.1,-0.6 -0.3,-1.2 -0.7,-1.6 -0.3,-0.4 -1,-0.9 -1.9,-1.5 l -0.8,-0.5 -5.4,8.3 z m 11.4,-8.8 3,1.9 c 1.9,1.2 3.2,1.9 3.8,2.1 0.6,0.1 1.1,0.1 1.7,-0.1 0.5,-0.2 1,-0.6 1.4,-1.2 0.4,-0.7 0.6,-1.3 0.5,-2 -0.1,-0.6 -0.4,-1.2 -1,-1.8 -0.3,-0.3 -1.3,-0.9 -2.9,-2 l -3.1,-2 z"
               id="path968" />
            <path
               d="m 155.1,522.6 10.9,-21 4.2,2.2 -10.9,21 z"
               id="path970" />
            <path
               d="m 166.2,528.3 8.7,-21.9 7.1,2.8 c 2.7,1.1 4.4,1.9 5.1,2.4 1.1,0.8 1.9,2 2.3,3.4 0.4,1.4 0.3,3 -0.4,4.8 -0.5,1.3 -1.2,2.4 -2.1,3.1 -0.9,0.7 -1.8,1.2 -2.7,1.4 -1,0.2 -1.9,0.3 -2.7,0.1 -1.1,-0.2 -2.7,-0.7 -4.7,-1.5 l -2.9,-1.2 -3.3,8.3 z m 11.7,-16.4 -2.5,6.2 2.4,1 c 1.7,0.7 3,1 3.6,1.1 0.6,0.1 1.3,-0.2 1.8,-0.5 0.5,-0.3 0.9,-0.9 1.2,-1.5 0.3,-0.8 0.3,-1.5 0.1,-2.3 -0.2,-0.8 -0.7,-1.3 -1.4,-1.7 -0.5,-0.3 -1.5,-0.8 -3.1,-1.4 z"
               id="path972" />
            <path
               d="m 208.3,541.8 -5,-1.3 -0.7,-5.7 -9.2,-2.3 -3.2,4.7 -4.9,-1.2 14.7,-20.6 4.9,1.2 z m -6.2,-11.2 -1,-9.3 -5.2,7.7 z"
               id="path974" />
            <path
               d="m 214.4,542.6 2.2,-23.5 4.7,0.4 -0.9,9.3 9.3,0.9 0.9,-9.3 4.7,0.4 -2.2,23.5 -4.7,-0.4 0.9,-10.3 -9.3,-0.9 -0.9,10.3 z"
               id="path976" />
            <path
               d="m 254,544 -3.2,-23.4 9.9,-1.3 c 2.5,-0.3 4.3,-0.4 5.5,-0.1 1.2,0.3 2.2,0.9 3,1.9 0.8,1 1.3,2.2 1.5,3.6 0.2,1.8 -0.1,3.3 -1,4.6 -0.9,1.3 -2.3,2.2 -4.3,2.8 1.1,0.5 2,1 2.8,1.6 0.8,0.6 1.8,1.8 3.2,3.4 l 3.5,4.2 -5.7,0.8 -4.1,-4.6 c -1.5,-1.7 -2.4,-2.7 -3,-3.1 -0.5,-0.4 -1,-0.7 -1.6,-0.8 -0.5,-0.1 -1.3,-0.1 -2.4,0.1 l -1,0.1 1.3,9.8 z m 2.9,-14.2 3.5,-0.5 c 2.3,-0.3 3.7,-0.6 4.2,-0.9 0.5,-0.3 0.9,-0.7 1.2,-1.2 0.3,-0.5 0.3,-1.1 0.2,-1.8 -0.1,-0.8 -0.4,-1.4 -0.9,-1.8 -0.5,-0.4 -1.1,-0.7 -1.9,-0.7 -0.4,0 -1.5,0.1 -3.5,0.4 l -3.7,0.5 z"
               id="path978" />
            <path
               d="m 281,539.6 -6.6,-22.7 16.8,-4.9 1.1,3.8 -12.2,3.6 1.5,5 11.4,-3.3 1.1,3.8 -11.4,3.3 1.8,6.2 12.7,-3.7 1.1,3.8 z"
               id="path980" />
            <path
               d="m 305.3,531.9 -9.7,-21.6 7,-3.1 c 2.6,-1.2 4.4,-1.9 5.3,-2 1.4,-0.2 2.7,0 4,0.7 1.3,0.7 2.4,1.9 3.1,3.6 0.6,1.3 0.9,2.5 0.8,3.7 -0.1,1.1 -0.4,2.1 -0.9,2.9 -0.5,0.8 -1.1,1.5 -1.8,2 -0.9,0.7 -2.4,1.4 -4.4,2.3 l -2.8,1.3 3.6,8.1 z m -3.7,-19.8 2.7,6.1 2.4,-1.1 c 1.7,-0.8 2.8,-1.4 3.3,-1.9 0.5,-0.5 0.8,-1 0.9,-1.7 0.1,-0.6 0,-1.3 -0.3,-1.9 -0.4,-0.8 -0.9,-1.3 -1.6,-1.6 -0.7,-0.3 -1.4,-0.4 -2.2,-0.2 -0.6,0.1 -1.6,0.6 -3.2,1.3 z"
               id="path982" />
            <path
               d="m 328.3,521 -12.4,-20.1 14.9,-9.2 2.1,3.4 -10.9,6.7 2.7,4.5 10.1,-6.2 2.1,3.4 -10.1,6.2 3.4,5.5 11.2,-6.9 2.1,3.4 z"
               id="path984" />
            <path
               d="m 349.6,507.3 -14.7,-18.5 3.7,-3 5.8,7.3 7.3,-5.8 -5.8,-7.3 3.7,-3 14.7,18.5 -3.7,3 -6.4,-8.1 -7.3,5.8 6.4,8.1 z"
               id="path986" />
            <path
               d="m 379.1,481.6 -17.6,-15.8 6.7,-7.5 c 1.7,-1.9 3.1,-3.1 4.1,-3.7 1.1,-0.6 2.3,-0.7 3.5,-0.5 1.3,0.2 2.4,0.8 3.5,1.7 1.3,1.2 2.1,2.5 2.2,4.1 0.2,1.5 -0.3,3.2 -1.5,4.9 1.1,-0.4 2.2,-0.6 3.2,-0.6 1,0 2.5,0.2 4.7,0.5 l 5.4,0.9 -3.8,4.2 -6.1,-0.9 c -2.2,-0.3 -3.6,-0.5 -4.3,-0.4 -0.7,0 -1.2,0.2 -1.7,0.4 -0.5,0.3 -1.1,0.8 -1.8,1.6 l -0.6,0.7 7.3,6.6 z m -7,-12.7 2.4,-2.6 c 1.5,-1.7 2.4,-2.8 2.6,-3.4 0.2,-0.6 0.3,-1.1 0.1,-1.7 -0.2,-0.6 -0.5,-1.1 -1,-1.5 -0.6,-0.5 -1.2,-0.8 -1.9,-0.8 -0.7,0 -1.3,0.2 -1.9,0.7 -0.3,0.3 -1.1,1.1 -2.4,2.5 l -2.5,2.8 z"
               id="path988" />
            <path
               d="m 409.3,443.9 -3,4.2 -5.6,-1.5 -5.5,7.6 3.2,4.7 -3,4.1 -13.7,-21.3 3,-4.1 z m -12.7,1.6 -9,-2.5 5.2,7.7 z"
               id="path990" />
            <path
               d="M 412.3,439.1 392,427 l 3.9,-6.6 c 1.5,-2.5 2.5,-4.1 3.2,-4.7 1,-1 2.2,-1.6 3.7,-1.7 1.5,-0.2 3,0.2 4.7,1.2 1.2,0.7 2.2,1.6 2.7,2.5 0.6,1 0.9,1.9 1,2.9 0.1,1 0,1.9 -0.3,2.7 -0.4,1.1 -1.1,2.6 -2.2,4.4 l -1.6,2.7 7.7,4.5 z m -14.4,-14.1 5.8,3.4 1.3,-2.2 c 1,-1.6 1.5,-2.8 1.6,-3.4 0.1,-0.7 0,-1.3 -0.2,-1.9 -0.3,-0.6 -0.7,-1 -1.3,-1.4 -0.7,-0.4 -1.5,-0.6 -2.2,-0.4 -0.7,0.2 -1.4,0.5 -1.9,1.1 -0.4,0.4 -1,1.4 -1.9,2.9 z"
               id="path992" />
            <path
               d="m 424.6,417.5 -21,-10.8 2.2,-4.2 21,10.8 z"
               id="path994" />
            <path
               d="m 430.1,406.6 -21.7,-9.4 1.9,-4.4 8.5,3.7 3.7,-8.6 -8.5,-3.7 1.9,-4.4 21.7,9.4 -1.9,4.4 -9.5,-4.1 -3.7,8.6 9.5,4.1 z"
               id="path996" />
          </g>
          <ellipse
             style="fill:#fbe600;stroke:#000000;stroke-width:7;stroke-miterlimit:10"
             cx="240"
             cy="260"
             rx="188.8"
             ry="251.3"
             id="ellipse1000" />
          <g
             id="g1176">
            <defs
               id="defs1003">
              <ellipse
                 id="ellipse1221"
                 cx="240"
                 cy="260"
                 rx="173.8"
                 ry="236.3" />
            </defs>
            <clipPath
               id="SVGID_2_">
              <use
                 xlink:href="#SVGID_1_"
                 style="overflow:visible"
                 id="use1005"
                 x="0"
                 y="0"
                 width="100%"
                 height="100%" />
            </clipPath>
            <rect
               x="66.300003"
               y="23.799999"
               style="fill:#006f23"
               width="347.5"
               height="492"
               clip-path="url(#SVGID_2_)"
               id="rect1008" />
            <g
               clip-path="url(#SVGID_2_)"
               id="g1048">
              <rect
                 x="66.300003"
                 y="339.89999"
                 style="fill:#021eaa"
                 width="347.5"
                 height="157.10001"
                 id="rect1010" />
              <rect
                 x="372"
                 y="471.89999"
                 style="fill:#ffffff"
                 width="33"
                 height="33"
                 id="rect1012" />
              <rect
                 x="306"
                 y="471.89999"
                 style="fill:#ffffff"
                 width="33"
                 height="33"
                 id="rect1014" />
              <rect
                 x="240"
                 y="471.89999"
                 style="fill:#ffffff"
                 width="33"
                 height="33"
                 id="rect1016" />
              <rect
                 x="339"
                 y="438.89999"
                 style="fill:#ffffff"
                 width="33"
                 height="33"
                 id="rect1018" />
              <rect
                 x="273"
                 y="438.89999"
                 style="fill:#ffffff"
                 width="33"
                 height="33"
                 id="rect1020" />
              <rect
                 x="372"
                 y="405.89999"
                 style="fill:#ffffff"
                 width="33"
                 height="33"
                 id="rect1022" />
              <rect
                 x="306"
                 y="405.89999"
                 style="fill:#ffffff"
                 width="33"
                 height="33"
                 id="rect1024" />
              <rect
                 x="240"
                 y="405.89999"
                 style="fill:#ffffff"
                 width="33"
                 height="33"
                 id="rect1026" />
              <rect
                 x="339"
                 y="372.89999"
                 style="fill:#ffffff"
                 width="33"
                 height="33"
                 id="rect1028" />
              <rect
                 x="273"
                 y="372.89999"
                 style="fill:#ffffff"
                 width="33"
                 height="33"
                 id="rect1030" />
              <rect
                 x="372"
                 y="339.89999"
                 style="fill:#ffffff"
                 width="33"
                 height="33"
                 id="rect1032" />
              <rect
                 x="306"
                 y="339.89999"
                 style="fill:#ffffff"
                 width="33"
                 height="33"
                 id="rect1034" />
              <rect
                 x="240"
                 y="339.89999"
                 style="fill:#ffffff"
                 width="33"
                 height="33"
                 id="rect1036" />
              <path
                 style="fill:#ffffff"
                 d="m 240,465.9 c -9.9,4.5 -19.5,6.5 -29,5.9 -13.1,-0.8 -16,-5.9 -29,-5.9 -13.9,0 -15,5.9 -29,5.9 -13.9,0 -15,-5.9 -29,-5.9 -13,0 -15.9,5.1 -29,5.9 -9.4,0.6 -19.1,-1.4 -29,-5.9 v -33 c 9.9,4.5 19.5,6.5 29,5.9 13.1,-0.8 16,-5.9 29,-5.9 14,0 15,5.9 29,5.9 14,0 15,-5.9 29,-5.9 13,0 15.9,5.1 29,5.9 9.4,0.6 19.1,-1.4 29,-5.9 z"
                 id="path1038" />
              <path
                 style="fill:#ffffff"
                 d="m 240,399.9 c -9.9,4.5 -19.5,6.5 -29,5.9 -13.1,-0.8 -16,-5.9 -29,-5.9 -13.9,0 -15,5.9 -29,5.9 -13.9,0 -15,-5.9 -29,-5.9 -13,0 -15.9,5.1 -29,5.9 -9.4,0.6 -19.1,-1.4 -29,-5.9 v -33 c 9.9,4.5 19.5,6.5 29,5.9 13.1,-0.8 16,-5.9 29,-5.9 14,0 15,5.9 29,5.9 14,0 15,-5.9 29,-5.9 13,0 15.9,5.1 29,5.9 9.4,0.6 19.1,-1.4 29,-5.9 z"
                 id="path1040" />
              <path
                 style="fill:#021eaa"
                 d="m 245,516.5 h 6 c 0,-6.8 -1.1,-10.2 -2.1,-13.5 -1,-3 -1.9,-5.9 -1.9,-11.7 0,-5.8 0.9,-8.7 1.9,-11.7 1.1,-3.3 2.1,-6.8 2.1,-13.5 0,-6.8 -1.1,-10.2 -2.1,-13.5 -1,-3 -1.9,-5.9 -1.9,-11.7 0,-5.8 0.9,-8.7 1.9,-11.7 1.1,-3.3 2.1,-6.8 2.1,-13.5 0,-6.7 -1.1,-10.2 -2.1,-13.5 -1,-3 -1.9,-5.9 -1.9,-11.7 0,-5.8 0.9,-8.7 1.9,-11.7 1.1,-3.3 2.1,-6.8 2.1,-13.5 0,-6.8 -1.1,-10.2 -2.1,-13.5 -1,-3 -1.9,-5.9 -1.9,-11.7 h -6 c 0,6.8 1.1,10.2 2.1,13.5 1,3 1.9,5.9 1.9,11.7 0,5.8 -0.9,8.7 -1.9,11.7 -1.1,3.3 -2.1,6.8 -2.1,13.5 0,6.7 1.1,10.2 2.1,13.5 1,3 1.9,5.9 1.9,11.7 0,5.8 -0.9,8.7 -1.9,11.7 -1.1,3.3 -2.1,6.8 -2.1,13.5 0,6.8 1.1,10.2 2.1,13.5 1,3 1.9,5.9 1.9,11.7 0,5.8 -0.9,8.7 -1.9,11.7 -1.1,3.3 -2.1,6.8 -2.1,13.5 0,6.7 1.1,10.2 2.1,13.5 1,3 1.9,5.9 1.9,11.7 z"
                 id="path1042" />
              <path
                 style="fill:#ffffff"
                 d="m 239,516.5 h 6 c 0,-6.8 -1.1,-10.2 -2.1,-13.5 -1,-3 -1.9,-5.9 -1.9,-11.7 0,-5.8 0.9,-8.7 1.9,-11.7 1.1,-3.3 2.1,-6.8 2.1,-13.5 0,-6.8 -1.1,-10.2 -2.1,-13.5 -1,-3 -1.9,-5.9 -1.9,-11.7 0,-5.8 0.9,-8.7 1.9,-11.7 1.1,-3.3 2.1,-6.8 2.1,-13.5 0,-6.7 -1.1,-10.2 -2.1,-13.5 -1,-3 -1.9,-5.9 -1.9,-11.7 0,-5.8 0.9,-8.7 1.9,-11.7 1.1,-3.3 2.1,-6.8 2.1,-13.5 0,-6.8 -1.1,-10.2 -2.1,-13.5 -1,-3 -1.9,-5.9 -1.9,-11.7 h -6 c 0,6.8 1.1,10.2 2.1,13.5 1,3 1.9,5.9 1.9,11.7 0,5.8 -0.9,8.7 -1.9,11.7 -1.1,3.3 -2.1,6.8 -2.1,13.5 0,6.7 1.1,10.2 2.1,13.5 1,3 1.9,5.9 1.9,11.7 0,5.8 -0.9,8.7 -1.9,11.7 -1.1,3.3 -2.1,6.8 -2.1,13.5 0,6.8 1.1,10.2 2.1,13.5 1,3 1.9,5.9 1.9,11.7 0,5.8 -0.9,8.7 -1.9,11.7 -1.1,3.3 -2.1,6.8 -2.1,13.5 0,6.7 1.1,10.2 2.1,13.5 1,3 1.9,5.9 1.9,11.7 z"
                 id="path1044" />
              <path
                 style="fill:#021eaa"
                 d="m 233,516.5 h 6 c 0,-6.8 -1.1,-10.2 -2.1,-13.5 -1,-3 -1.9,-5.9 -1.9,-11.7 0,-5.8 0.9,-8.7 1.9,-11.7 1.1,-3.3 2.1,-6.8 2.1,-13.5 0,-6.8 -1.1,-10.2 -2.1,-13.5 -1,-3 -1.9,-5.9 -1.9,-11.7 0,-5.8 0.9,-8.7 1.9,-11.7 1.1,-3.3 2.1,-6.8 2.1,-13.5 0,-6.7 -1.1,-10.2 -2.1,-13.5 -1,-3 -1.9,-5.9 -1.9,-11.7 0,-5.8 0.9,-8.7 1.9,-11.7 1.1,-3.3 2.1,-6.8 2.1,-13.5 0,-6.8 -1.1,-10.2 -2.1,-13.5 -1,-3 -1.9,-5.9 -1.9,-11.7 h -6 c 0,6.8 1.1,10.2 2.1,13.5 1,3 1.9,5.9 1.9,11.7 0,5.8 -0.9,8.7 -1.9,11.7 -1.1,3.3 -2.1,6.8 -2.1,13.5 0,6.7 1.1,10.2 2.1,13.5 1,3 1.9,5.9 1.9,11.7 0,5.8 -0.9,8.7 -1.9,11.7 -1.1,3.3 -2.1,6.8 -2.1,13.5 0,6.8 1.1,10.2 2.1,13.5 1,3 1.9,5.9 1.9,11.7 0,5.8 -0.9,8.7 -1.9,11.7 -1.1,3.3 -2.1,6.8 -2.1,13.5 0,6.7 1.1,10.2 2.1,13.5 1,3 1.9,5.9 1.9,11.7 z"
                 id="path1046" />
            </g>
            <g
               clip-path="url(#SVGID_2_)"
               id="g1056">
              <polygon
                 points="269.7,284.1 240,284.1 210.3,284.1 175.3,329.5 163.1,309.2 91.8,309.2 77.5,339.9 240,339.9 402.5,339.9 388.2,309.2 316.9,309.2 304.7,329.5 "
                 id="polygon1050" />
              <path
                 style="fill:#ffffff;stroke:#000000;stroke-width:0.75;stroke-miterlimit:10"
                 d="m 280,162.8 c -1.1,-1 -2.2,-1.8 -2.2,-1.8 0,0 0.7,-0.9 1.3,-2.6 0.6,-1.7 0.2,-4.2 -1,-5.3 -1.2,-1 -2,-1.4 -2,-1.4 0,0 0.9,-0.9 1.4,-2.9 0.3,-1.1 0.2,-3.2 -0.8,-4.3 -1.2,-1.3 -3.1,-1.8 -3.1,-1.8 0,0 1,-1.2 1.5,-3 0.5,-1.7 -0.1,-4.1 -1.6,-5.1 -1.4,-1 -4.1,-1.4 -4.1,-1.4 0,0 2.2,-2.4 2.2,-4.7 0,-1.5 -0.5,-4.6 -5,-5.9 -2.4,-0.7 -5.2,0.7 -7.6,0 -3.9,-1.1 -23.6,-15.7 -23.3,-35.3 0,-2.3 0.3,-4.8 1.1,-7.6 -3,1.5 -8,4.5 -12.4,9.9 -4,4.8 -6,9.5 -7,12.6 -0.6,3.7 -0.9,9 0.7,14.9 0.4,1.7 1,3.2 1.6,4.6 -0.8,1.1 -1.8,2.7 -2.6,4.6 -0.9,2 -1.3,3.8 -1.6,5.3 0.1,1.6 0.4,3.9 1.4,6.4 0.6,1.5 1.3,2.6 2,3.6 9.7,11.9 20.6,22.9 29.1,35.6 1.3,1.9 3.2,6.5 3.1,12.6 -0.1,5.7 -2,10 -3.1,12 -1,2 -3,5.5 -6.9,8.6 -3.3,2.7 -6.6,5 -8.7,4.6 -1.1,-0.2 -2.4,-1.6 -4.4,-2.3 -2,-0.7 -3.8,-0.7 -5,-0.7 -0.1,0 -2.1,-0.3 -3.4,1.2 -0.9,1.1 -0.8,2.3 -0.8,2.6 0.2,1 0.8,4 3.4,6.4 3.9,3.5 9.1,2 9.4,2.6 0.7,1.2 -2.2,2.5 -3.3,4.4 -0.8,1.4 -1.3,2.8 -1.6,3.9 -0.3,0.5 -0.8,1.6 -0.7,3.1 0,1.3 0.5,2.2 0.7,2.7 0.5,0.9 1.3,2.3 2.9,3.6 1.9,1.6 5.1,1.4 5,2.4 0,0.4 -2.7,0.2 -4.3,2.3 -1.5,1.9 -1.2,4 -1.1,4.4 0.1,1 0.5,2.9 1.7,4.9 1.3,2.1 3,3.3 3.9,3.9 1.9,0 7.1,0 9,0 0.9,-1 2.1,-2.4 3.1,-4.2 1.1,-2 1.7,-3.8 2.1,-5.1 0.4,-2.3 0.7,-5 0.7,-8.1 0,-2.8 -0.3,-5.3 -0.6,-7.4 0,-1.3 -0.2,-3.9 -1.8,-6.7 -1.6,-2.8 -3.7,-3.7 -3.6,-5 0.2,-1.4 2.2,-1.1 4.4,-2.3 10.7,-5.5 15.8,-15 20.1,-23.6 2.8,-5.5 6.5,-13.9 8.6,-25 0.8,-0.4 1.9,-1.3 3,-2.7 2.1,-2.2 1.9,-6 0.2,-7.5 z m -18.6,-33.5 c 0,-1.9 1.5,-3.4 3.4,-3.4 1.9,0 3.4,1.5 3.4,3.4 0,1.9 -1.5,3.4 -3.4,3.4 -1.9,0 -3.4,-1.5 -3.4,-3.4 z m 3.4,10 c 0,-1.9 1.5,-3.4 3.4,-3.4 1.9,0 3.4,1.5 3.4,3.4 0,1.9 -1.5,3.4 -3.4,3.4 -1.9,0 -3.4,-1.5 -3.4,-3.4 z m 2.6,9 c 0,-1.9 1.5,-3.4 3.4,-3.4 1.9,0 3.4,1.5 3.4,3.4 0,1.9 -1.5,3.4 -3.4,3.4 -1.9,0 -3.4,-1.5 -3.4,-3.4 z m 1.9,9.2 c 0,-1.9 1.5,-3.4 3.4,-3.4 1.9,0 3.4,1.5 3.4,3.4 0,1.9 -1.5,3.4 -3.4,3.4 -1.9,0 -3.4,-1.5 -3.4,-3.4 z m 4.4,12.5 c -1.9,0 -3.4,-1.5 -3.4,-3.4 0,-1.9 1.5,-3.4 3.4,-3.4 1.9,0 3.4,1.5 3.4,3.4 0,1.9 -1.5,3.4 -3.4,3.4 z"
                 id="path1052" />
              <path
                 style="fill:#d81f00;stroke:#000000;stroke-width:0.75;stroke-miterlimit:10"
                 d="m 244.1,260.4 h -9 c -2.2,8.8 -3.4,16.8 -4,22.4 -0.6,5.9 -0.7,10.7 1.9,15.4 1,1.8 2.9,2.7 2.9,3.9 0,0.5 -3.6,3.8 -2.8,8.7 0.7,4.7 4.5,7 5,7.3 0.2,0.2 0.9,0.7 1.9,0.7 1.2,0.1 1.9,-0.6 2.1,-0.7 1,-1.1 2.2,-2.8 3.3,-5.1 1.7,-3.6 1.9,-7 2,-9 0.2,-4.5 0.7,-9.4 0.7,-14.7 0,-5.1 -0.3,-9.7 -0.7,-14 -0.1,-2.2 -0.3,-4.8 -1,-7.7 -0.6,-2.7 -1.5,-5.4 -2.3,-7.2 z"
                 id="path1054" />
            </g>
            <g
               clip-path="url(#SVGID_2_)"
               id="g1128">
              <path
                 style="fill:none;stroke:#000000;stroke-width:2.5;stroke-miterlimit:10"
                 d="M 274,294.4 C 326.8,262.1 355.2,206 345.9,154 338.7,113.9 311.5,88.9 300.7,79.9"
                 id="path1058" />
              <g
                 id="g1064">
                <path
                   style="fill:#ffffff;stroke:#000000;stroke-miterlimit:10"
                   d="m 309,70.5 c -0.1,-0.3 -1,-2.4 -3.3,-3.3 -0.4,-0.2 -2.6,-0.9 -4.7,0.3 -2,1.1 -2.6,3.1 -2.7,3.4 -0.6,-0.3 -2.4,-1.2 -4.9,-0.8 -2.6,0.4 -4.1,2.1 -4.5,2.6 -0.3,0.5 -1.1,1.7 -1.1,3.4 0,2.2 1.1,3.8 1.5,4.2 -0.4,0.1 -2.4,0.7 -3.2,2.5 -1,2.1 -0.1,5 2.4,6.7 0.8,0.2 9,1.5 15.4,-4.5 5.8,-5.8 5.1,-13.5 5.1,-14.5 z"
                   id="path1060" />
                <path
                   style="fill:#006f23;stroke:#000000;stroke-miterlimit:10"
                   d="m 287,91.8 c 1.6,0.7 3.9,1.6 6.8,2.4 4.4,1.2 7.2,2 10.5,1.2 1.4,-0.3 4.4,-1.4 7.3,-4.8 2.8,-2.9 3.4,-5.6 3.6,-6.9 0.4,-2.7 -0.4,-5 -2.1,-9.5 -0.8,-2.3 -1.7,-4.2 -2.3,-5.6 -0.8,0.7 -1.8,1.7 -2.6,3.1 -1.6,2.7 -2,5.3 -2,6.7 -1.7,-0.6 -3.6,-1.2 -5.8,-1.7 -2.3,-0.5 -4.4,-0.8 -6.2,-0.9 0.2,1.5 0.6,3.3 1.2,5.2 0.8,2.4 1.7,4.3 2.6,5.9 -0.9,0 -2.1,0.1 -3.5,0.3 -2.6,0.4 -4.3,0.7 -5.8,2 -0.5,0.5 -1.2,1.3 -1.7,2.6 z"
                   id="path1062" />
              </g>
              <g
                 id="g1070">
                <path
                   style="fill:#ffffff;stroke:#000000;stroke-miterlimit:10"
                   d="m 328.3,87.1 c -0.1,-0.3 -0.4,-2.5 -2.4,-3.8 -0.3,-0.2 -2.2,-1.4 -4.4,-0.7 -2.1,0.6 -3,2.3 -3.2,2.6 -0.4,-0.4 -2,-1.7 -4.4,-1.8 -2.5,-0.1 -4.2,1.1 -4.7,1.4 -0.4,0.4 -1.3,1.4 -1.7,3 -0.5,2.1 0.2,3.7 0.5,4.2 -0.4,0 -2.3,0.1 -3.5,1.6 -1.4,1.7 -1.1,4.6 0.8,6.7 0.7,0.3 8,3.3 15.2,-1 6.7,-4 7.7,-11.3 7.8,-12.2 z"
                   id="path1066" />
                <path
                   style="fill:#006f23;stroke:#000000;stroke-miterlimit:10"
                   d="m 303.5,102.1 c 1.3,1 3.2,2.3 5.8,3.7 3.8,2 6.3,3.3 9.5,3.3 1.3,0 4.3,-0.3 7.7,-2.9 3.2,-2.1 4.3,-4.4 4.8,-5.6 0.9,-2.4 0.6,-4.7 0.1,-9.2 -0.3,-2.3 -0.7,-4.3 -0.9,-5.6 -0.9,0.5 -2,1.2 -3.1,2.3 -2.1,2.1 -2.9,4.5 -3.3,5.8 -1.4,-0.9 -3.1,-1.9 -5,-2.8 -2,-0.9 -3.9,-1.6 -5.5,-2.1 -0.1,1.5 -0.1,3.2 0.1,5.1 0.2,2.3 0.7,4.4 1.1,6 -0.8,-0.2 -1.9,-0.4 -3.3,-0.5 -2.5,-0.2 -4.2,-0.3 -5.8,0.6 -0.7,0.2 -1.5,0.8 -2.2,1.9 z"
                   id="path1068" />
              </g>
              <g
                 id="g1076">
                <path
                   style="fill:#ffffff;stroke:#000000;stroke-miterlimit:10"
                   d="m 345.6,105.8 c 0,-0.4 0.1,-2.7 -1.7,-4.4 -0.3,-0.3 -2,-1.9 -4.5,-1.7 -2.3,0.2 -3.6,1.8 -3.9,2.1 -0.4,-0.5 -1.8,-2.2 -4.2,-2.8 -2.6,-0.6 -4.7,0.3 -5.2,0.5 -0.5,0.3 -1.7,1.2 -2.4,2.8 -1,2.1 -0.5,4 -0.4,4.5 -0.4,-0.1 -2.5,-0.3 -4,1 -1.8,1.5 -2.1,4.6 -0.5,7.2 0.7,0.5 7.7,5.1 16.1,2.1 7.9,-2.9 10.4,-10.4 10.7,-11.3 z"
                   id="path1072" />
                <path
                   style="fill:#006f23;stroke:#000000;stroke-miterlimit:10"
                   d="m 316.5,116.6 c 1.2,1.3 2.9,3.1 5.3,5 3.6,2.9 5.9,4.8 9.3,5.4 1.4,0.2 4.6,0.5 8.7,-1.5 3.8,-1.5 5.5,-3.8 6.2,-4.9 1.4,-2.3 1.6,-4.8 2,-9.7 0.2,-2.5 0.2,-4.6 0.1,-6.1 -1,0.3 -2.3,0.9 -3.7,1.8 -2.6,1.8 -4,4.1 -4.6,5.4 -1.3,-1.2 -2.9,-2.6 -4.7,-3.9 -1.9,-1.4 -3.8,-2.5 -5.4,-3.4 -0.4,1.5 -0.8,3.3 -1,5.3 -0.3,2.5 -0.2,4.7 0,6.5 -0.8,-0.3 -2,-0.8 -3.4,-1.1 -2.6,-0.7 -4.3,-1.1 -6.2,-0.5 -0.6,0.2 -1.6,0.6 -2.6,1.7 z"
                   id="path1074" />
              </g>
              <g
                 id="g1082">
                <path
                   style="fill:#ffffff;stroke:#000000;stroke-miterlimit:10"
                   d="m 358.3,129.4 c 0.1,-0.3 0.7,-2.4 -0.6,-4.5 -0.2,-0.3 -1.4,-2.2 -3.7,-2.6 -2.1,-0.3 -3.7,0.8 -4,1 -0.2,-0.6 -1.1,-2.4 -3.2,-3.5 -2.2,-1.2 -4.3,-0.8 -4.9,-0.7 -0.5,0.2 -1.8,0.7 -2.9,1.9 -1.3,1.7 -1.4,3.5 -1.4,4 -0.4,-0.2 -2.2,-0.9 -3.9,0 -2,1 -3,3.7 -2.2,6.5 0.5,0.6 5.9,6.5 14.2,5.6 8.1,-0.7 12.1,-7 12.6,-7.7 z"
                   id="path1078" />
                <path
                   style="fill:#006f23;stroke:#000000;stroke-miterlimit:10"
                   d="m 329.3,132.4 c 0.8,1.4 2,3.5 3.7,5.8 2.6,3.5 4.3,5.7 7.2,7 1.2,0.5 4.1,1.6 8.3,0.6 3.8,-0.5 5.8,-2.2 6.8,-3.1 1.9,-1.8 2.6,-4 4,-8.4 0.7,-2.3 1.2,-4.2 1.5,-5.5 -1,0.1 -2.3,0.3 -3.8,0.8 -2.8,1 -4.6,2.8 -5.5,3.8 -0.9,-1.4 -2,-3 -3.4,-4.7 -1.4,-1.7 -2.8,-3.1 -4.1,-4.3 -0.7,1.3 -1.5,2.8 -2.1,4.6 -0.8,2.2 -1.3,4.3 -1.5,6 -0.7,-0.5 -1.6,-1.2 -2.8,-1.8 -2.2,-1.2 -3.7,-2 -5.5,-1.9 -0.7,0.2 -1.7,0.4 -2.8,1.1 z"
                   id="path1080" />
              </g>
              <g
                 id="g1088">
                <path
                   style="fill:#ffffff;stroke:#000000;stroke-miterlimit:10"
                   d="m 366.5,151.1 c 0.1,-0.3 0.9,-2.4 -0.2,-4.6 -0.2,-0.4 -1.2,-2.4 -3.6,-2.9 -2.2,-0.5 -3.9,0.5 -4.2,0.7 -0.2,-0.6 -0.9,-2.5 -3,-3.9 -2.2,-1.4 -4.3,-1.2 -4.9,-1.1 -0.6,0.1 -1.9,0.5 -3.1,1.8 -1.5,1.6 -1.7,3.5 -1.7,4 -0.4,-0.2 -2.2,-1.1 -4,-0.3 -2.1,0.9 -3.4,3.6 -2.7,6.4 0.5,0.6 5.5,7.1 14.1,6.9 8.1,-0.2 12.7,-6.3 13.3,-7 z"
                   id="path1084" />
                <path
                   style="fill:#006f23;stroke:#000000;stroke-miterlimit:10"
                   d="m 336.4,151.9 c 0.7,1.5 1.7,3.8 3.3,6.3 2.4,3.8 3.9,6.2 6.8,7.8 1.2,0.7 4.1,1.9 8.5,1.3 3.9,-0.2 6.2,-1.7 7.2,-2.6 2.1,-1.7 3,-3.9 4.8,-8.2 1,-2.3 1.6,-4.2 2,-5.5 -1,0 -2.4,0.1 -4,0.5 -3,0.8 -4.9,2.5 -5.9,3.5 -0.8,-1.5 -1.8,-3.3 -3.1,-5.1 -1.3,-1.9 -2.7,-3.5 -3.9,-4.8 -0.8,1.3 -1.7,2.8 -2.6,4.6 -1,2.2 -1.6,4.3 -2.1,6 -0.7,-0.6 -1.6,-1.3 -2.7,-2.1 -2.2,-1.5 -3.6,-2.4 -5.5,-2.4 -0.5,-0.1 -1.5,0 -2.8,0.7 z"
                   id="path1086" />
              </g>
              <g
                 id="g1094">
                <path
                   style="fill:#ffffff;stroke:#000000;stroke-miterlimit:10"
                   d="m 370.7,177.4 c 0.2,-0.3 1.6,-2.2 1.1,-4.8 -0.1,-0.4 -0.6,-2.8 -2.9,-4 -2.1,-1.1 -4.1,-0.6 -4.5,-0.5 0,-0.7 -0.2,-2.8 -2,-4.8 -1.8,-2 -4.1,-2.4 -4.7,-2.5 -0.6,0 -2.1,0 -3.6,0.9 -2,1.2 -2.7,3.1 -2.9,3.6 -0.3,-0.3 -1.9,-1.7 -4,-1.5 -2.4,0.3 -4.5,2.7 -4.6,5.8 0.3,0.8 3.6,8.8 12.5,11 8.4,2.3 14.8,-2.6 15.6,-3.2 z"
                   id="path1090" />
                <path
                   style="fill:#006f23;stroke:#000000;stroke-miterlimit:10"
                   d="m 339.8,169.8 c 0.2,1.8 0.7,4.3 1.6,7.3 1.4,4.6 2.3,7.5 4.8,9.9 1.1,1 3.6,3.1 8.3,3.7 4.1,0.9 6.8,0 8.1,-0.6 2.6,-1.2 4.1,-3.1 7.2,-7.1 1.6,-2 2.8,-3.8 3.6,-5.1 -1.1,-0.3 -2.5,-0.6 -4.2,-0.6 -3.3,0 -5.7,1.2 -7,1.9 -0.4,-1.8 -0.9,-3.8 -1.7,-6 -0.8,-2.3 -1.7,-4.3 -2.6,-6 -1.2,1 -2.5,2.4 -3.9,4 -1.7,2 -2.9,3.9 -3.8,5.5 -0.5,-0.8 -1.2,-1.8 -2.2,-2.9 -1.8,-2.1 -3,-3.5 -5,-4 -0.6,-0.2 -1.7,-0.3 -3.2,0 z"
                   id="path1092" />
              </g>
              <g
                 id="g1100">
                <path
                   style="fill:#ffffff;stroke:#000000;stroke-miterlimit:10"
                   d="m 368.1,203.1 c 0.3,-0.3 2,-1.8 2.1,-4.5 0,-0.4 0,-2.8 -1.9,-4.6 -1.8,-1.6 -3.9,-1.5 -4.3,-1.4 0.1,-0.7 0.4,-2.9 -0.9,-5.2 -1.3,-2.4 -3.5,-3.3 -4.1,-3.5 -0.6,-0.2 -2.1,-0.4 -3.8,0.1 -2.2,0.7 -3.3,2.4 -3.6,2.9 -0.2,-0.4 -1.5,-2.1 -3.6,-2.3 -2.4,-0.2 -5,1.7 -5.8,4.7 0.1,0.8 1.6,9.4 9.9,13.6 7.6,4 15.1,0.7 16,0.2 z"
                   id="path1096" />
                <path
                   style="fill:#006f23;stroke:#000000;stroke-miterlimit:10"
                   d="m 339.3,188.8 c -0.1,1.8 -0.3,4.4 0,7.6 0.4,4.8 0.6,7.9 2.5,10.8 0.8,1.2 2.9,3.8 7.3,5.5 3.8,1.8 6.7,1.4 8.1,1.2 2.8,-0.6 4.7,-2.2 8.7,-5.4 2,-1.6 3.6,-3.1 4.7,-4.2 -1,-0.5 -2.3,-1.1 -4,-1.5 -3.2,-0.7 -5.9,-0.1 -7.3,0.3 0,-1.9 -0.1,-4 -0.4,-6.3 -0.3,-2.4 -0.8,-4.6 -1.3,-6.5 -1.4,0.8 -3,1.8 -4.7,3 -2.1,1.6 -3.7,3.2 -4.9,4.6 -0.3,-0.9 -0.8,-2 -1.5,-3.3 -1.3,-2.5 -2.2,-4.1 -4,-5 -0.6,-0.3 -1.7,-0.8 -3.2,-0.8 z"
                   id="path1098" />
              </g>
              <g
                 id="g1106">
                <path
                   style="fill:#ffffff;stroke:#000000;stroke-miterlimit:10"
                   d="m 360.6,227.8 c 0.3,-0.2 2.5,-1.4 3.1,-4 0.1,-0.4 0.7,-2.9 -0.9,-5.1 -1.5,-2 -3.6,-2.4 -4,-2.4 0.3,-0.6 1,-2.8 0.2,-5.4 -0.8,-2.7 -2.8,-4.1 -3.3,-4.5 -0.6,-0.3 -2,-0.9 -3.9,-0.7 -2.4,0.2 -3.9,1.7 -4.3,2.1 -0.2,-0.4 -1.1,-2.5 -3.1,-3.1 -2.4,-0.8 -5.4,0.6 -6.9,3.5 -0.1,0.9 -0.5,9.9 6.9,15.9 7,5.7 15.2,4 16.2,3.7 z"
                   id="path1102" />
                <path
                   style="fill:#006f23;stroke:#000000;stroke-miterlimit:10"
                   d="m 334.8,207 c -0.5,1.8 -1.2,4.4 -1.7,7.6 -0.7,4.9 -1.2,8.1 0.1,11.4 0.5,1.4 2,4.5 6.2,7.2 3.5,2.6 6.4,3 7.9,3 2.9,0 5.3,-1.1 9.9,-3.5 2.4,-1.2 4.3,-2.4 5.7,-3.2 -0.9,-0.8 -2.1,-1.7 -3.7,-2.4 -3.1,-1.4 -5.9,-1.4 -7.5,-1.3 0.4,-1.9 0.8,-4 1,-6.5 0.2,-2.5 0.2,-4.8 0.1,-6.8 -1.6,0.5 -3.4,1.1 -5.4,2 -2.4,1.1 -4.4,2.4 -6,3.6 -0.1,-0.9 -0.4,-2.2 -0.8,-3.7 -0.8,-2.8 -1.3,-4.6 -2.9,-6 -0.4,-0.4 -1.4,-1.1 -2.9,-1.4 z"
                   id="path1104" />
              </g>
              <g
                 id="g1112">
                <path
                   style="fill:#ffffff;stroke:#000000;stroke-miterlimit:10"
                   d="m 348,250.9 c 0.4,-0.1 2.8,-0.9 4.1,-3.4 0.2,-0.4 1.3,-2.8 0.2,-5.4 -1,-2.4 -3.2,-3.2 -3.6,-3.4 0.4,-0.6 1.7,-2.6 1.5,-5.4 -0.2,-3 -1.9,-4.8 -2.4,-5.3 -0.5,-0.4 -1.8,-1.4 -3.8,-1.6 -2.5,-0.3 -4.4,0.8 -4.9,1.2 -0.1,-0.5 -0.5,-2.8 -2.5,-3.9 -2.3,-1.3 -5.6,-0.6 -7.8,2 -0.3,0.9 -2.7,10 3.4,17.8 6,7.3 14.8,7.4 15.8,7.4 z"
                   id="path1108" />
                <path
                   style="fill:#006f23;stroke:#000000;stroke-miterlimit:10"
                   d="m 326.5,223.8 c -0.9,1.7 -2.3,4.2 -3.5,7.4 -1.8,4.9 -3,7.9 -2.4,11.7 0.2,1.6 1,5.1 4.7,8.7 2.9,3.5 5.9,4.5 7.4,4.8 3,0.7 5.6,0 10.9,-1.3 2.7,-0.7 5,-1.4 6.5,-2 -0.7,-1 -1.8,-2.2 -3.2,-3.3 -2.8,-2.1 -5.7,-2.8 -7.3,-3 0.9,-1.8 1.8,-3.9 2.5,-6.4 0.8,-2.5 1.3,-4.8 1.7,-6.9 -1.7,0.1 -3.8,0.3 -6,0.8 -2.7,0.6 -5.1,1.5 -6.9,2.3 0.1,-1 0.1,-2.4 0,-4 -0.2,-3 -0.3,-5 -1.6,-6.7 -0.5,-0.5 -1.4,-1.4 -2.8,-2.1 z"
                   id="path1110" />
              </g>
              <g
                 id="g1118">
                <path
                   style="fill:#ffffff;stroke:#000000;stroke-miterlimit:10"
                   d="m 331.1,270.5 c 0.4,0 3.1,-0.4 4.8,-2.8 0.3,-0.4 1.8,-2.6 1.1,-5.5 -0.6,-2.6 -2.7,-3.9 -3.1,-4.1 0.5,-0.5 2.2,-2.4 2.5,-5.3 0.3,-3.1 -1.1,-5.3 -1.5,-5.9 -0.5,-0.5 -1.6,-1.7 -3.6,-2.3 -2.5,-0.7 -4.6,0.1 -5.2,0.3 0,-0.5 0,-2.9 -1.9,-4.5 -2.1,-1.8 -5.7,-1.7 -8.4,0.6 -0.4,0.9 -4.5,9.8 0.4,18.9 4.8,8.8 13.9,10.4 14.9,10.6 z"
                   id="path1114" />
                <path
                   style="fill:#006f23;stroke:#000000;stroke-miterlimit:10"
                   d="m 313.8,238.9 c -1.3,1.6 -3.1,3.9 -4.9,7 -2.7,4.7 -4.5,7.6 -4.6,11.6 0,1.7 0.2,5.4 3.2,9.8 2.4,4.1 5.3,5.6 6.7,6.2 2.9,1.2 5.8,1 11.4,0.6 2.9,-0.2 5.3,-0.6 7,-0.9 -0.6,-1.1 -1.4,-2.5 -2.7,-3.9 -2.5,-2.7 -5.4,-3.9 -7,-4.4 1.2,-1.7 2.5,-3.7 3.7,-6.1 1.3,-2.4 2.2,-4.7 2.9,-6.8 -1.8,-0.2 -3.9,-0.3 -6.3,-0.2 -2.9,0.1 -5.5,0.6 -7.5,1.1 0.3,-1 0.5,-2.4 0.7,-4.1 0.4,-3.1 0.6,-5.2 -0.5,-7.2 0,-0.7 -0.7,-1.7 -2.1,-2.7 z"
                   id="path1116" />
              </g>
              <g
                 id="g1124">
                <path
                   style="fill:#ffffff;stroke:#000000;stroke-miterlimit:10"
                   d="m 311.5,288 c 0.5,0 3.3,0.1 5.5,-2.2 0.4,-0.4 2.3,-2.5 2,-5.6 -0.3,-2.9 -2.2,-4.5 -2.6,-4.8 0.6,-0.5 2.7,-2.2 3.4,-5.3 0.8,-3.2 -0.4,-5.8 -0.7,-6.5 -0.4,-0.6 -1.5,-2.1 -3.4,-3 -2.6,-1.2 -4.9,-0.6 -5.6,-0.4 0.1,-0.5 0.4,-3.1 -1.3,-5 -1.9,-2.2 -5.7,-2.6 -9,-0.6 -0.6,0.9 -6.3,9.6 -2.5,20 3.8,9.9 13.1,13 14.2,13.4 z"
                   id="path1120" />
                <path
                   style="fill:#006f23;stroke:#000000;stroke-miterlimit:10"
                   d="m 298,251.9 c -1.6,1.5 -3.8,3.7 -6.2,6.6 -3.6,4.5 -5.9,7.4 -6.6,11.5 -0.3,1.7 -0.6,5.7 1.9,10.8 1.9,4.7 4.7,6.7 6.1,7.6 2.9,1.8 5.9,2 12,2.4 3.1,0.2 5.7,0.2 7.6,0.1 -0.4,-1.3 -1.1,-2.9 -2.3,-4.6 -2.3,-3.2 -5.1,-4.9 -6.7,-5.7 1.5,-1.6 3.2,-3.6 4.9,-5.9 1.7,-2.4 3.1,-4.7 4.1,-6.7 -1.9,-0.5 -4.1,-0.9 -6.6,-1.2 -3.1,-0.3 -5.9,-0.2 -8.1,0 0.4,-1 0.9,-2.4 1.4,-4.2 0.9,-3.2 1.4,-5.4 0.6,-7.7 -0.2,-0.5 -0.8,-1.7 -2.1,-3 z"
                   id="path1122" />
              </g>
              <path
                 d="m 285,285.5 c 0,0 5.1,-5.6 10.6,-4.9 2.4,0.3 4.3,1.3 5.4,2 -4.2,1.1 -8.3,3.5 -12.6,3.4 -1,0 -3.4,-0.5 -3.4,-0.5 z"
                 id="path1126" />
            </g>
            <g
               clip-path="url(#SVGID_2_)"
               id="g1172">
              <path
                 style="fill:#fbe600;stroke:#000000;stroke-width:0.75;stroke-miterlimit:10"
                 d="m 143,267.9 c 1.2,1.9 3.4,4.6 6.8,7 4.9,3.4 9.7,4.6 12.2,4.6 2.1,0.1 5.5,-0.5 9.2,-2.1 3.1,-1.3 5.3,-3 6.8,-4.3 -1.6,-1.5 -3.9,-3.2 -6.8,-4.7 -4.4,-2.3 -8.5,-3.4 -11.3,-3.5 -1.3,-0.1 -3.2,0.2 -5.5,0.9 -2.5,0.7 -3.5,1.5 -5.8,2.1 -1.2,0.1 -3.1,0.3 -5.6,0 z"
                 id="path1130" />
              <path
                 style="fill:#fbe600;stroke:#000000;stroke-width:0.75;stroke-miterlimit:10"
                 d="m 180.5,274.1 c 1.3,-2.2 2.7,-5.1 3.9,-8.6 1.5,-4.8 2.2,-9.1 2,-12.2 -0.2,-3.6 -1.9,-9.1 -5.4,-15 -2.6,-4.3 -5.5,-7.4 -7.8,-9.5 0.2,1.9 0.4,4.9 -0.3,8.3 -0.6,2.8 -1.4,4 -2.2,7.1 -0.6,2 -1.2,5.1 -1.3,9 -0.1,2.1 0,7.1 3,12.5 2.7,4.8 6.3,7.3 8.1,8.4 z"
                 id="path1132" />
              <path
                 style="fill:#fbe600;stroke:#000000;stroke-width:0.75;stroke-miterlimit:10"
                 d="m 128,252.2 c 1.2,1.9 3.4,4.6 6.8,7 4.9,3.4 9.7,4.6 12.2,4.6 2.1,0.1 5.5,-0.5 9.2,-2.1 3.1,-1.3 5.3,-3 6.8,-4.3 -1.6,-1.5 -3.9,-3.2 -6.8,-4.7 -4.4,-2.3 -8.5,-3.4 -11.3,-3.5 -1.3,-0.1 -3.2,0.2 -5.5,0.9 -2.5,0.7 -3.5,1.5 -5.8,2.1 -1.2,0.1 -3.1,0.3 -5.6,0 z"
                 id="path1134" />
              <path
                 style="fill:#fbe600;stroke:#000000;stroke-width:0.75;stroke-miterlimit:10"
                 d="m 160.8,252.4 c 1.6,-1.8 3.4,-4.1 5.1,-7 2.3,-4.1 3.7,-7.8 4.1,-10.7 0.5,-3.3 0,-8.6 -2.1,-14.6 -1.5,-4.4 -3.6,-7.7 -5.3,-10 -0.1,1.8 -0.6,4.5 -1.9,7.5 -1.1,2.4 -2,3.4 -3.4,6 -0.9,1.7 -2,4.4 -2.8,7.9 -0.5,1.9 -1.4,6.5 0.4,11.9 1.6,4.8 4.4,7.7 5.9,9 z"
                 id="path1136" />
              <path
                 style="fill:#fbe600;stroke:#000000;stroke-width:0.75;stroke-miterlimit:10"
                 d="m 118.2,231.5 c 1,2 2.9,4.9 5.9,7.7 4.5,3.9 9.1,5.6 11.6,6 2.1,0.3 5.5,0.1 9.3,-1.1 3.2,-1 5.6,-2.4 7.2,-3.6 -1.5,-1.6 -3.5,-3.6 -6.2,-5.4 -4.1,-2.8 -8,-4.3 -10.8,-4.8 -1.3,-0.2 -3.2,-0.2 -5.5,0.2 -2.6,0.5 -3.6,1.2 -6,1.4 -1.1,0.2 -3.1,0.2 -5.5,-0.4 z"
                 id="path1138" />
              <path
                 style="fill:#fbe600;stroke:#000000;stroke-width:0.75;stroke-miterlimit:10"
                 d="m 145.3,227.2 c 1.8,-1.4 4,-3.2 6.1,-5.7 2.9,-3.4 5,-6.7 5.9,-9.3 1,-3 1.6,-8.1 0.7,-14.1 -0.6,-4.4 -2,-8 -3.1,-10.4 -0.5,1.7 -1.4,4.1 -3.1,6.7 -1.5,2.1 -2.5,2.8 -4.3,5.1 -1.2,1.5 -2.7,3.8 -4.1,6.9 -0.8,1.7 -2.5,5.8 -1.8,11.2 0.4,4.8 2.6,8.1 3.7,9.6 z"
                 id="path1140" />
              <path
                 style="fill:#fbe600;stroke:#000000;stroke-width:0.75;stroke-miterlimit:10"
                 d="m 113.8,210.3 c 0.7,1.8 1.9,4.6 4.2,7.3 3.4,3.9 7.2,5.9 9.3,6.5 1.8,0.5 4.7,0.7 8.1,0.1 2.9,-0.5 5.1,-1.4 6.6,-2.2 -1.1,-1.6 -2.6,-3.5 -4.7,-5.4 -3.2,-2.9 -6.4,-4.6 -8.7,-5.3 -1.1,-0.3 -2.8,-0.5 -4.8,-0.4 -2.3,0.1 -3.3,0.6 -5.3,0.5 -1,-0.1 -2.7,-0.3 -4.7,-1.1 z"
                 id="path1142" />
              <path
                 style="fill:#fbe600;stroke:#000000;stroke-width:0.75;stroke-miterlimit:10"
                 d="m 135.7,200.8 c 2,-0.9 4.4,-2.3 6.9,-4.2 3.4,-2.7 6,-5.4 7.4,-7.7 1.6,-2.7 3.1,-7.4 3.4,-13.3 0.3,-4.3 -0.3,-7.9 -1,-10.5 -0.8,1.5 -2.1,3.7 -4.3,5.8 -1.8,1.7 -3,2.2 -5,4 -1.4,1.2 -3.3,3.1 -5.3,5.8 -1.1,1.5 -3.5,5.1 -3.9,10.3 -0.4,4.5 1,8.1 1.8,9.8 z"
                 id="path1144" />
              <path
                 style="fill:#fbe600;stroke:#000000;stroke-width:0.75;stroke-miterlimit:10"
                 d="m 111.3,185.2 c 0.2,2 0.7,5 2.3,8.2 2.3,4.7 5.6,7.6 7.5,8.7 1.6,1 4.4,1.9 8,2.2 2.9,0.3 5.4,-0.1 7.1,-0.5 -0.6,-1.8 -1.6,-4.1 -3.2,-6.5 -2.4,-3.6 -5.1,-6.2 -7.2,-7.5 -1,-0.6 -2.6,-1.2 -4.6,-1.6 -2.3,-0.5 -3.3,-0.3 -5.3,-0.8 -1.2,-0.3 -2.8,-0.9 -4.6,-2.2 z"
                 id="path1146" />
              <path
                 style="fill:#fbe600;stroke:#000000;stroke-width:0.75;stroke-miterlimit:10"
                 d="m 133.1,173.7 c 2.1,-0.5 4.6,-1.2 7.4,-2.5 3.8,-1.8 6.8,-3.8 8.5,-5.7 2,-2.2 4.4,-6.3 6,-11.7 1.1,-4 1.4,-7.5 1.3,-10.1 -1,1.2 -2.7,3 -5.2,4.5 -2,1.2 -3.2,1.4 -5.5,2.7 -1.6,0.8 -3.7,2.2 -6.2,4.3 -1.3,1.1 -4.3,4 -5.8,8.8 -1.4,4.4 -0.8,8 -0.5,9.7 z"
                 id="path1148" />
              <path
                 style="fill:#fbe600;stroke:#000000;stroke-width:0.75;stroke-miterlimit:10"
                 d="m 112.9,162.2 c -0.2,1.9 -0.3,4.7 0.7,8.1 1.3,4.8 3.8,8.1 5.4,9.5 1.3,1.2 3.8,2.6 7,3.5 2.7,0.8 5,0.9 6.7,0.8 -0.3,-1.8 -0.8,-4.1 -1.9,-6.6 -1.6,-3.8 -3.6,-6.7 -5.4,-8.2 -0.8,-0.7 -2.2,-1.6 -4,-2.3 -2,-0.9 -3.1,-0.8 -4.8,-1.7 -0.9,-0.7 -2.3,-1.5 -3.7,-3.1 z"
                 id="path1150" />
              <path
                 style="fill:#fbe600;stroke:#000000;stroke-width:0.75;stroke-miterlimit:10"
                 d="m 118.3,140 c -0.6,1.8 -1.4,4.5 -1.3,8 0.1,5 1.8,8.8 3,10.5 1,1.5 3.1,3.4 6,5.1 2.4,1.4 4.7,2.1 6.3,2.4 0.2,-1.8 0.2,-4.2 -0.2,-6.9 -0.6,-4.1 -1.9,-7.3 -3.2,-9.3 -0.6,-0.9 -1.7,-2.1 -3.3,-3.2 -1.8,-1.3 -2.8,-1.6 -4.2,-2.8 -1,-0.8 -2.1,-1.9 -3.1,-3.8 z"
                 id="path1152" />
              <path
                 style="fill:#fbe600;stroke:#000000;stroke-width:0.75;stroke-miterlimit:10"
                 d="m 127.9,118.3 c -0.9,1.5 -2.2,4 -2.8,7.2 -0.9,4.6 -0.1,8.5 0.7,10.3 0.7,1.6 2.2,3.8 4.6,5.9 2,1.8 4,2.8 5.4,3.5 0.5,-1.7 1,-3.8 1.2,-6.4 0.2,-3.9 -0.3,-7.2 -1.2,-9.3 -0.4,-1 -1.2,-2.3 -2.4,-3.7 -1.4,-1.6 -2.3,-2 -3.4,-3.5 -0.7,-0.8 -1.6,-2.1 -2.1,-4 z"
                 id="path1154" />
              <path
                 style="fill:#fbe600;stroke:#000000;stroke-width:0.75;stroke-miterlimit:10"
                 d="m 136.4,144.3 c 1.9,0 4.2,-0.2 6.8,-0.8 3.6,-0.8 6.5,-2 8.3,-3.3 2.1,-1.5 4.9,-4.6 7.3,-9 1.7,-3.2 2.5,-6.2 2.9,-8.4 -1.1,0.9 -2.9,2.1 -5.3,2.9 -2,0.7 -3,0.7 -5.2,1.3 -1.5,0.4 -3.6,1.2 -6.1,2.6 -1.3,0.7 -4.4,2.7 -6.6,6.5 -1.9,3.5 -2.1,6.7 -2.1,8.2 z"
                 id="path1156" />
              <path
                 style="fill:#fbe600;stroke:#000000;stroke-width:0.75;stroke-miterlimit:10"
                 d="m 141.3,100.3 c -1.2,1.2 -2.8,3.1 -4,5.9 -1.7,4 -1.8,7.7 -1.5,9.5 0.3,1.6 1.2,3.9 2.9,6.3 1.4,2 3,3.4 4.1,4.3 0.8,-1.4 1.7,-3.3 2.4,-5.6 1,-3.5 1.2,-6.6 0.9,-8.6 -0.1,-1 -0.6,-2.3 -1.4,-3.8 -0.9,-1.7 -1.6,-2.3 -2.3,-3.8 -0.5,-1 -1,-2.3 -1.1,-4.2 z"
                 id="path1158" />
              <path
                 style="fill:#fbe600;stroke:#000000;stroke-width:0.75;stroke-miterlimit:10"
                 d="m 147.7,118.5 c 1.7,0.4 3.9,0.7 6.5,0.6 3.5,-0.1 6.5,-0.6 8.5,-1.4 2.3,-1 5.5,-3.2 8.6,-6.9 2.2,-2.7 3.6,-5.3 4.5,-7.2 -1.2,0.6 -3.1,1.3 -5.5,1.6 -2,0.2 -3,0 -5.2,0.1 -1.5,0.1 -3.6,0.4 -6.2,1.2 -1.4,0.4 -4.7,1.6 -7.5,4.7 -2.5,2.9 -3.4,5.8 -3.7,7.3 z"
                 id="path1160" />
              <path
                 style="fill:#fbe600;stroke:#000000;stroke-width:0.75;stroke-miterlimit:10"
                 d="m 155,82.9 c -1.3,1 -3.3,2.7 -4.9,5.4 -2.4,3.8 -3,7.5 -2.9,9.3 0,1.6 0.6,4.1 2,6.8 1.1,2.2 2.5,3.8 3.5,4.9 1,-1.3 2.2,-3 3.2,-5.3 1.5,-3.4 2.2,-6.5 2.1,-8.6 0,-1 -0.3,-2.4 -0.9,-4 -0.7,-1.9 -1.3,-2.5 -1.8,-4.2 -0.2,-1 -0.4,-2.4 -0.3,-4.3 z"
                 id="path1162" />
              <path
                 style="fill:#fbe600;stroke:#000000;stroke-width:0.75;stroke-miterlimit:10"
                 d="m 164.5,94.5 c 1.5,0.8 3.4,1.6 5.7,2.2 3.2,0.8 6,1.1 8,0.9 2.3,-0.3 5.8,-1.5 9.5,-4 2.7,-1.8 4.6,-3.8 5.9,-5.4 -1.2,0.2 -3.1,0.4 -5.4,0.1 -1.8,-0.3 -2.7,-0.8 -4.7,-1.2 -1.3,-0.3 -3.3,-0.6 -5.9,-0.5 -1.4,0 -4.6,0.2 -8,2.4 -3,1.8 -4.5,4.3 -5.1,5.5 z"
                 id="path1164" />
              <path
                 style="fill:#fbe600;stroke:#000000;stroke-width:0.75;stroke-miterlimit:10"
                 d="m 174.7,68.8 c -1.5,0.6 -3.8,1.6 -6.1,3.6 -3.3,2.9 -4.9,6.1 -5.4,7.9 -0.4,1.5 -0.6,4 0,6.9 0.4,2.4 1.3,4.3 1.9,5.6 1.3,-0.9 2.9,-2.2 4.5,-4 2.4,-2.7 3.9,-5.5 4.4,-7.4 0.3,-0.9 0.4,-2.3 0.3,-4 -0.1,-1.9 -0.5,-2.7 -0.5,-4.5 0.1,-1 0.2,-2.4 0.9,-4.1 z"
                 id="path1166" />
              <path
                 style="fill:none;stroke:#000000;stroke-width:2.5;stroke-miterlimit:10"
                 d="m 179.4,79.9 c -10.8,8.9 -38.1,34 -45.2,74.1 -9.3,52.1 19.1,108.1 71.9,140.4"
                 id="path1168" />
              <path
                 style="fill:#fbe600;stroke:#000000;stroke-width:0.75;stroke-miterlimit:10"
                 d="m 199.7,70.2 c -1.6,-0.7 -4.4,-1.3 -7.9,-1.4 -2.9,-0.1 -5,0.6 -6.5,1.3 -1.7,0.8 -3.8,2.3 -5.7,4.7 -2.7,3.4 -3.8,6.7 -4.4,8.8 2,0.1 4.9,0.1 8.3,-0.9 3.2,-0.9 5.1,-1.9 6.7,-3 1.3,-0.9 3.3,-2.6 4.7,-4 2,-1.9 3.6,-3.9 4.8,-5.5 z"
                 id="path1170" />
            </g>
            <use
               xlink:href="#SVGID_1_"
               style="overflow:visible;fill:none;stroke:#000000;stroke-width:7;stroke-miterlimit:10"
               id="use1174"
               x="0"
               y="0"
               width="100%"
               height="100%" />
          </g>
        </g>
        <g
           id="g1180" />
        <g
           id="g1182" />
        <g
           id="g1184" />
        <g
           id="g1186" />
        <g
           id="g1188" />
      </g>
    </g>
  </g>
</svg>
